<svg width="61" height="49" viewBox="0 0 61 49" fill="none" xmlns="http://www.w3.org/2000/svg">
<rect width="61" height="49" rx="5" fill="black"/>
<path fill-rule="evenodd" clip-rule="evenodd" d="M37.9764 30.3478L45.7866 38.158C46.0711 38.4425 46.0711 38.9026 45.7866 39.1872L45.1872 39.7866C44.9026 40.0711 44.4425 40.0711 44.158 39.7866L36.3478 31.9764C36.2146 31.8372 36.1359 31.6555 36.1359 31.4618V30.8442C33.8897 32.9148 30.8928 34.1863 27.5931 34.1863C20.6366 34.1863 15 28.5496 15 21.5931C15 14.6366 20.6366 9 27.5931 9C34.5496 9 40.1863 14.6366 40.1863 21.5931C40.1863 24.8928 38.9148 27.8897 36.8382 30.1359H37.4618C37.6555 30.1359 37.8372 30.2085 37.9764 30.3478ZM16.9374 21.5931C16.9374 27.4841 21.7022 32.2489 27.5931 32.2489C33.4841 32.2489 38.2489 27.4841 38.2489 21.5931C38.2489 15.7022 33.4841 10.9374 27.5931 10.9374C21.7022 10.9374 16.9374 15.7022 16.9374 21.5931Z" fill="white"/>
</svg>
